HIERARCHY
ROOT Hips
{
    OFFSET 0.000000 0.000000 0.000000
    CHANNELS 6 Xposition Yposition Zposition Zrotation Xrotation Yrotation
    JOINT Spine
    {
        OFFSET 0.000001 7.292995 0.000000
        CHANNELS 3 Zrotation Xrotation Yrotation
        JOINT Spine1
        {
            OFFSET -0.000000 20.255388 0.000001
            CHANNELS 3 Zrotation Xrotation Yrotation
            JOINT Neck
            {
                OFFSET 0.000001 20.786594 0.000000
                CHANNELS 3 Zrotation Xrotation Yrotation
                JOINT Head
                {
                    OFFSET 0.000003 12.530788 1.776080
                    CHANNELS 3 Zrotation Xrotation Yrotation
                    End Site
                    {
                        OFFSET 0.000000 17.760757 0.000000
                    }
                }
            }
            JOINT LeftShoulder
            {
                OFFSET 3.550532 15.465697 -0.908801
                CHANNELS 3 Zrotation Xrotation Yrotation
                JOINT LeftArm
                {
                    OFFSET 12.513301 -0.000005 0.000001
                    CHANNELS 3 Zrotation Xrotation Yrotation
                    JOINT LeftForeArm
                    {
                        OFFSET 24.225992 0.000005 0.000000
                        CHANNELS 3 Zrotation Xrotation Yrotation
                        JOINT LeftHand
                        {
                            OFFSET 20.711395 -0.000004 0.000000
                            CHANNELS 3 Zrotation Xrotation Yrotation
                            JOINT LeftHandThumb1
                            {
                                OFFSET 2.121964 -2.411326 3.375861
                                CHANNELS 3 Zrotation Xrotation Yrotation
                                JOINT LeftHandThumb2
                                {
                                    OFFSET 2.803212 -0.000001 -0.000002
                                    CHANNELS 3 Zrotation Xrotation Yrotation
                                    JOINT LeftHandThumb3
                                    {
                                        OFFSET 2.395929 0.000000 0.000000
                                        CHANNELS 3 Zrotation Xrotation Yrotation
                                        End Site
                                        {
                                            OFFSET 2.127676 0.000000 0.000000
                                        }
                                    }
                                }
                            }
                            JOINT LeftHandIndex1
                            {
                                OFFSET 8.680776 0.000004 3.375861
                                CHANNELS 3 Zrotation Xrotation Yrotation
                                JOINT LeftHandIndex2
                                {
                                    OFFSET 4.218180 -0.000002 0.000001
                                    CHANNELS 3 Zrotation Xrotation Yrotation
                                    JOINT LeftHandIndex3
                                    {
                                        OFFSET 2.109090 0.000001 -0.000000
                                        CHANNELS 3 Zrotation Xrotation Yrotation
                                        End Site
                                        {
                                            OFFSET 1.872952 0.000000 0.000000
                                        }
                                    }
                                }
                            }
                            JOINT LeftHandMiddle1
                            {
                                OFFSET 8.680775 0.000001 1.118862
                                CHANNELS 3 Zrotation Xrotation Yrotation
                                JOINT LeftHandMiddle2
                                {
                                    OFFSET 4.640000 0.000002 -0.000000
                                    CHANNELS 3 Zrotation Xrotation Yrotation
                                    JOINT LeftHandMiddle3
                                    {
                                        OFFSET 2.530906 0.000005 0.000000
                                        CHANNELS 3 Zrotation Xrotation Yrotation
                                        End Site
                                        {
                                            OFFSET 2.247544 0.000000 0.000000
                                        }
                                    }
                                }
                            }
                            JOINT LeftHandRing1
                            {
                                OFFSET 8.198514 -0.000004 -1.118859
                                CHANNELS 3 Zrotation Xrotation Yrotation
                                JOINT LeftHandRing2
                                {
                                    OFFSET 4.218182 -0.000003 -0.000001
                                    CHANNELS 3 Zrotation Xrotation Yrotation
                                    JOINT LeftHandRing3
                                    {
                                        OFFSET 2.109086 0.000004 0.000001
                                        CHANNELS 3 Zrotation Xrotation Yrotation
                                        End Site
                                        {
                                            OFFSET 1.872952 0.000000 0.000000
                                        }
                                    }
                                }
                            }
                            JOINT LeftHandPinky1
                            {
                                OFFSET 7.716242 0.000005 -3.375859
                                CHANNELS 3 Zrotation Xrotation Yrotation
                                JOINT LeftHandPinky2
                                {
                                    OFFSET 3.374535 0.000004 0.000002
                                    CHANNELS 3 Zrotation Xrotation Yrotation
                                    JOINT LeftHandPinky3
                                    {
                                        OFFSET 1.687275 0.000002 -0.000001
                                        CHANNELS 3 Zrotation Xrotation Yrotation
                                        End Site
                                        {
                                            OFFSET 1.498360 0.000000 0.000000
                                        }
                                    }
                                }
                            }
                        }
                    }
                }
            }
            JOINT RightShoulder
            {
                OFFSET -3.550531 15.465694 -0.908802
                CHANNELS 3 Zrotation Xrotation Yrotation
                JOINT RightArm
                {
                    OFFSET -12.513298 -0.000004 0.000001
                    CHANNELS 3 Zrotation Xrotation Yrotation
                    JOINT RightForeArm
                    {
                        OFFSET -24.225996 -0.000002 -0.000000
                        CHANNELS 3 Zrotation Xrotation Yrotation
                        JOINT RightHand
                        {
                            OFFSET -20.711401 0.000005 0.000001
                            CHANNELS 3 Zrotation Xrotation Yrotation
                            JOINT RightHandThumb1
                            {
                                OFFSET -2.121970 -2.411334 3.375861
                                CHANNELS 3 Zrotation Xrotation Yrotation
                                JOINT RightHandThumb2
                                {
                                    OFFSET -2.803210 0.000003 -0.000004
                                    CHANNELS 3 Zrotation Xrotation Yrotation
                                    JOINT RightHandThumb3
                                    {
                                        OFFSET -2.395930 -0.000001 0.000002
                                        CHANNELS 3 Zrotation Xrotation Yrotation
                                        End Site
                                        {
                                            OFFSET -2.127676 0.000000 0.000000
                                        }
                                    }
                                }
                            }
                            JOINT RightHandIndex1
                            {
                                OFFSET -8.680779 0.000001 3.375860
                                CHANNELS 3 Zrotation Xrotation Yrotation
                                JOINT RightHandIndex2
                                {
                                    OFFSET -4.218180 0.000000 -0.000000
                                    CHANNELS 3 Zrotation Xrotation Yrotation
                                    JOINT RightHandIndex3
                                    {
                                        OFFSET -2.109090 0.000001 -0.000000
                                        CHANNELS 3 Zrotation Xrotation Yrotation
                                        End Site
                                        {
                                            OFFSET -1.872952 0.000000 0.000000
                                        }
                                    }
                                }
                            }
                            JOINT RightHandMiddle1
                            {
                                OFFSET -8.680780 0.000001 1.118860
                                CHANNELS 3 Zrotation Xrotation Yrotation
                                JOINT RightHandMiddle2
                                {
                                    OFFSET -4.640000 -0.000002 0.000001
                                    CHANNELS 3 Zrotation Xrotation Yrotation
                                    JOINT RightHandMiddle3
                                    {
                                        OFFSET -2.530910 0.000001 -0.000000
                                        CHANNELS 3 Zrotation Xrotation Yrotation
                                        End Site
                                        {
                                            OFFSET -2.247544 0.000000 0.000000
                                        }
                                    }
                                }
                            }
                            JOINT RightHandRing1
                            {
                                OFFSET -8.198519 0.000005 -1.118860
                                CHANNELS 3 Zrotation Xrotation Yrotation
                                JOINT RightHandRing2
                                {
                                    OFFSET -4.218180 -0.000006 0.000000
                                    CHANNELS 3 Zrotation Xrotation Yrotation
                                    JOINT RightHandRing3
                                    {
                                        OFFSET -2.109090 0.000001 -0.000000
                                        CHANNELS 3 Zrotation Xrotation Yrotation
                                        End Site
                                        {
                                            OFFSET -1.872952 0.000000 0.000000
                                        }
                                    }
                                }
                            }
                            JOINT RightHandPinky1
                            {
                                OFFSET -7.716248 -0.000002 -3.375859
                                CHANNELS 3 Zrotation Xrotation Yrotation
                                JOINT RightHandPinky2
                                {
                                    OFFSET -3.374540 0.000000 0.000000
                                    CHANNELS 3 Zrotation Xrotation Yrotation
                                    JOINT RightHandPinky3
                                    {
                                        OFFSET -1.687270 0.000004 0.000001
                                        CHANNELS 3 Zrotation Xrotation Yrotation
                                        End Site
                                        {
                                            OFFSET -1.498360 0.000000 0.000000
                                        }
                                    }
                                }
                            }
                        }
                    }
                }
            }
        }
    }
    JOINT LeftUpLeg
    {
        OFFSET 8.880376 -0.000000 -0.000000
        CHANNELS 3 Zrotation Xrotation Yrotation
        JOINT LeftLeg
        {
            OFFSET -0.000001 -40.387405 -0.000001
            CHANNELS 3 Zrotation Xrotation Yrotation
            JOINT LeftFoot
            {
                OFFSET -0.000001 -36.911297 -0.000001
                CHANNELS 3 Zrotation Xrotation Yrotation
                JOINT LeftToeBase
                {
                    OFFSET -0.000002 -5.772240 13.320604
                    CHANNELS 3 Zrotation Xrotation Yrotation
                    End Site
                    {
                        OFFSET 0.000000 0.000000 3.552151
                    }
                }
            }
        }
    }
    JOINT RightUpLeg
    {
        OFFSET -8.880376 0.000000 0.000000
        CHANNELS 3 Zrotation Xrotation Yrotation
        JOINT RightLeg
        {
            OFFSET -0.000001 -40.387390 0.000000
            CHANNELS 3 Zrotation Xrotation Yrotation
            JOINT RightFoot
            {
                OFFSET 0.000002 -36.911297 -0.000001
                CHANNELS 3 Zrotation Xrotation Yrotation
                JOINT RightToeBase
                {
                    OFFSET 0.000001 -5.772238 13.320600
                    CHANNELS 3 Zrotation Xrotation Yrotation
                    End Site
                    {
                        OFFSET 0.000000 0.000000 3.552151
                    }
                }
            }
        }
    }
}
MOTION
Frames: 4
Frame Time: 0.013889
56.706055    83.720367    27.021900    0.544469    6.955057    -8.345623    0.194302    -22.314928    0.511716    1.296386    15.385239    0.112557    -0.793125    -5.931309    -0.668254    0.969801    2.362044    -0.628951    -1.263116    5.894709    -0.263925    -65.599754    37.521896    -9.201921    -5.627473    -18.088350    -17.607391    -13.913833    3.015258    11.587888    30.050177    35.306870    -41.975662    -11.879543    0.012228    23.317469    -0.000000    0.000000    -0.000000    -8.816027    17.800789    -2.082157    -8.390854    0.000000    -0.000003    -8.390839    -0.000008    0.000020    -10.288003    8.857622    -0.797393    -10.164001    -0.000000    0.000003    -10.164019    0.000001    0.000005    -11.184870    -8.831785    -1.287185    -11.050592    0.000001    -0.000002    -11.050567    -0.000002    0.000007    -12.532521    -17.597830    -2.941450    -11.937166    0.000000    -0.000001    -11.937139    -0.000003    0.000003    6.696829    5.183895    3.051742    61.969002    29.192034    8.451554    8.303833    -23.780453    19.898024    6.868236    -4.781929    -12.900338    -36.460819    30.606508    43.299721    13.643240    -0.747829    -23.306154    -0.000000    0.000000    -0.000000    16.302338    17.320356    6.019613    15.543933    -0.000003    -0.000000    15.543933    0.000004    0.000001    21.642864    8.374842    2.190342    21.400639    -0.000000    -0.000001    21.400640    0.000001    0.000000    24.596527    -8.194989    0.422949    24.328997    -0.000002    -0.000002    24.328983    0.000000    -0.000000    28.444805    -15.944291    1.843329    27.257336    -0.000004    -0.000001    27.257339    0.000001    -0.000001    -2.907130    -4.787196    8.689056    0.000000    7.762030    -0.000000    0.463089    -6.423182    -0.760646    0.000000    2.675784    0.000000    -0.165472    -9.167481    -8.795380    0.000000    11.729663    -0.000002    9.348630    -6.897397    11.379189    -0.000002    -0.443808    0.000002    
56.824421    83.713814    26.990208    0.632967    6.921132    -8.609353    0.173544    -22.201643    0.459265    1.291259    15.350001    0.068282    -0.769395    -6.019003    -0.619805    0.946976    2.336203    -0.580294    -1.228304    5.833109    -0.322305    -65.353348    37.324753    -9.300357    -5.448743    -17.719236    -17.401361    -14.287272    3.277811    11.326480    30.133675    35.250233    -41.892944    -11.874020    0.014605    23.317469    -0.000000    0.000000    -0.000000    -9.093589    17.788069    -2.166176    -8.655406    -0.000007    -0.000002    -8.655427    0.000009    -0.000003    -10.269471    8.858132    -0.884671    -10.145677    -0.000002    -0.000000    -10.145686    0.000001    0.000005    -11.023255    -8.836598    -1.433043    -10.890794    -0.000002    -0.000000    -10.890831    -0.000003    -0.000000    -12.217171    -17.617777    -3.187417    -11.635942    0.000003    -0.000001    -11.635954    -0.000011    0.000008    6.642445    5.150808    3.073998    61.853394    29.086412    8.435414    8.275406    -23.738075    19.865080    7.018919    -4.835772    -12.588364    -36.522381    30.563984    43.295475    13.639047    -0.746015    -23.306196    -0.000000    0.000000    -0.000000    16.361799    17.315403    6.010098    15.600941    0.000004    0.000005    15.600932    0.000000    0.000001    21.606628    8.376912    2.199715    21.364725    0.000002    -0.000001    21.364727    -0.000002    0.000001    24.513477    -8.200344    0.421576    24.246624    -0.000002    -0.000004    24.246611    0.000001    0.000002    28.312279    -15.963213    1.827837    27.128510    -0.000001    -0.000002    27.128513    -0.000000    0.000002    -3.070595    -4.829737    8.667596    -0.000000    7.832999    0.000000    0.549727    -6.354498    -0.539384    -0.000000    2.694262    -0.000000    -0.315203    -9.478868    -8.621181    0.000001    12.260387    -0.000003    9.158549    -6.986885    11.344454    0.000001    -0.497262    0.000000    
56.915497    83.700386    26.998695    0.715854    6.913736    -8.932105    0.158453    -22.186935    0.419590    1.267461    15.330326    0.039646    -0.727226    -6.070437    -0.514156    0.935622    2.330845    -0.477430    -1.216127    5.771170    -0.285839    -65.074318    37.059422    -9.378970    -5.247897    -17.380239    -17.091990    -14.697771    3.390841    11.328423    30.213291    35.198429    -41.766594    -11.870790    0.015988    23.317471    -0.000000    0.000000    -0.000000    -9.319538    17.777412    -2.147687    -8.870843    0.000003    0.000005    -8.870835    0.000001    0.000004    -10.219399    8.859507    -0.917630    -10.096194    0.000004    -0.000007    -10.096171    0.000001    0.000004    -10.839201    -8.841992    -1.535842    -10.708864    0.000003    -0.000003    -10.708829    -0.000001    0.000005    -11.887955    -17.638065    -3.349873    -11.321538    0.000002    -0.000002    -11.321508    -0.000002    0.000005    6.577298    5.161887    3.080155    61.773720    29.039150    8.382836    8.188757    -23.509830    19.836475    7.310504    -4.756333    -12.456658    -36.565815    30.537386    43.276348    13.644276    -0.748268    -23.306139    -0.000000    0.000000    -0.000000    16.428787    17.309801    6.006659    15.665126    0.000004    0.000002    15.665125    -0.000002    -0.000001    21.559471    8.379601    2.214833    21.317961    0.000003    -0.000000    21.317987    -0.000001    0.000000    24.410433    -8.206965    0.371179    24.144415    0.000003    0.000001    24.144409    -0.000000    0.000001    28.150024    -15.986263    1.711803    26.970848    -0.000001    0.000000    26.970840    0.000000    -0.000001    -3.207924    -4.844129    8.643340    0.000000    7.879256    0.000000    0.668865    -6.387025    -0.222863    0.000000    2.670948    0.000000    -0.427493    -9.758496    -8.399227    0.000000    12.742870    -0.000004    8.995696    -7.165479    11.371007    -0.000001    -0.566884    0.000001    
57.041557    83.681473    27.015854    0.804727    6.887898    -9.299849    0.146575    -22.196043    0.387989    1.279702    15.329527    0.008174    -0.706684    -6.067107    -0.394637    0.891021    2.360931    -0.358196    -1.229689    5.651717    -0.301574    -64.662689    36.697403    -9.593536    -4.993344    -17.079538    -16.567076    -15.041031    3.176227    11.985297    30.404129    35.044689    -42.201847    -11.827008    0.034868    23.317448    -0.000000    0.000000    -0.000000    -9.527516    17.767380    -2.610704    -9.069146    -0.000000    0.000002    -9.069139    0.000006    -0.000010    -10.152696    8.861335    -1.191166    -10.030241    -0.000002    0.000005    -10.030250    0.000001    -0.000007    -10.638839    -8.847767    -1.785489    -10.510803    0.000002    0.000000    -10.510794    0.000003    -0.000003    -11.542173    -17.658781    -3.805959    -10.991347    0.000001    0.000003    -10.991356    -0.000002    -0.000004    6.486188    5.142783    3.069294    61.650150    28.858957    8.273140    8.092385    -23.275459    19.789951    7.778127    -4.784743    -12.318916    -36.635689    30.491560    43.260612    13.647440    -0.749628    -23.306089    -0.000000    0.000000    -0.000000    16.493422    17.304377    6.033627    15.727077    0.000005    -0.000003    15.727083    -0.000002    0.000001    21.485624    8.383802    2.248698    21.244802    0.000002    -0.000006    21.244818    -0.000002    0.000001    24.268549    -8.216038    0.321910    24.003672    -0.000001    -0.000001    24.003683    0.000000    -0.000000    27.935654    -16.016518    1.594700    26.762526    0.000001    0.000002    26.762556    0.000000    -0.000001    -3.372517    -4.850627    8.737746    -0.000001    7.939099    0.000000    0.760002    -6.417979    0.044636    -0.000000    2.616339    -0.000000    -0.543724    -10.076441    -7.964461    -0.000000    13.305973    0.000001    8.698140    -7.369895    11.235473    -0.000001    -0.609789    0.000001    
